<?xml version="1.0" encoding="UTF-8"?>
<svg width="256" height="256" version="1.1" viewBox="0 0 256 256" xmlns="http://www.w3.org/2000/svg">
  <defs>
    <linearGradient id="carbonGradient" x1="0" y1="0" x2="1" y2="1">
      <stop offset="0%" stop-color="#2c3e50"/>
      <stop offset="100%" stop-color="#2c3e50"/>
    </linearGradient>
    
    <!-- Enhanced electron cloud effects -->
    <filter id="electronCloud" x="-50%" y="-50%" width="200%" height="200%">
      <feTurbulence type="fractalNoise" baseFrequency="0.04" numOctaves="5" seed="1"/>
      <feGaussianBlur stdDeviation="4"/>
      <feComponentTransfer>
        <feFuncA type="linear" slope="0.4"/>
      </feComponentTransfer>
    </filter>
    
    <filter id="innerGlow" x="-50%" y="-50%" width="200%" height="200%">
      <feGaussianBlur stdDeviation="2" result="blur"/>
      <feComposite in="SourceGraphic" in2="blur" operator="over"/>
    </filter>
    
    <!-- Enhanced electron density gradient -->
    <radialGradient id="electronDensity" cx="0.5" cy="0.5" r="0.5">
      <stop offset="0%" stop-color="#3498db" stop-opacity="0.35"/>
      <stop offset="70%" stop-color="#3498db" stop-opacity="0.2"/>
      <stop offset="100%" stop-color="#3498db" stop-opacity="0.1"/>
    </radialGradient>
    
    <!-- Additional glow effect for the cloud -->
    <filter id="cloudGlow" x="-50%" y="-50%" width="200%" height="200%">
      <feGaussianBlur stdDeviation="6" result="blur"/>
      <feFlood flood-color="#3498db" flood-opacity="0.3"/>
      <feComposite in2="blur" operator="in"/>
      <feMerge>
        <feMergeNode/>
        <feMergeNode in="SourceGraphic"/>
      </feMerge>
    </filter>
  </defs>
  
  <!-- Enhanced electron cloud background -->
  <g transform="translate(128 128)">
    <!-- Base electron cloud -->
    <circle cx="0" cy="0" r="110" fill="url(#electronDensity)" filter="url(#electronCloud)"/>
    
    <!-- Additional glowing cloud layer -->
    <circle cx="0" cy="0" r="105" fill="url(#electronDensity)" filter="url(#cloudGlow)"/>
    
    <!-- Enhanced probability density waves -->
    <path d="M 100,0 C 90,-60 -90,-60 -100,0 C -90,60 90,60 100,0" 
          fill="none" stroke="#3498db" stroke-width="2" 
          stroke-opacity="0.3" 
          transform="rotate(0)"/>
    <path d="M 100,0 C 90,-60 -90,-60 -100,0 C -90,60 90,60 100,0" 
          fill="none" stroke="#3498db" stroke-width="2" 
          stroke-opacity="0.3" 
          transform="rotate(60)"/>
    <path d="M 100,0 C 90,-60 -90,-60 -100,0 C -90,60 90,60 100,0" 
          fill="none" stroke="#3498db" stroke-width="2" 
          stroke-opacity="0.3" 
          transform="rotate(120)"/>
  </g>
  
  <!-- Benzene ring -->
  <g transform="translate(128 128)" filter="url(#innerGlow)">
    <!-- Hexagon -->
    <path d="M 100,0 L 50,-87 L -50,-87 L -100,0 L -50,87 L 50,87 Z" 
          fill="none" 
          stroke="#2c3e50" 
          stroke-width="8"
          stroke-linejoin="round"/>
    
    <!-- Carbon atoms -->
    <circle cx="100" cy="0" r="16" fill="url(#carbonGradient)"/>
    <circle cx="50" cy="-87" r="16" fill="url(#carbonGradient)"/>
    <circle cx="-50" cy="-87" r="16" fill="url(#carbonGradient)"/>
    <circle cx="-100" cy="0" r="16" fill="url(#carbonGradient)"/>
    <circle cx="-50" cy="87" r="16" fill="url(#carbonGradient)"/>
    <circle cx="50" cy="87" r="16" fill="url(#carbonGradient)"/>
    
    <!-- Circle in center representing electron delocalization -->
    <circle cx="0" cy="0" r="50" 
            fill="none" 
            stroke="#2c3e50" 
            stroke-width="4" 
            stroke-dasharray="10,6"/>
  </g>
</svg>